<?xml version="1.0" encoding="utf-8"?>
<!-- Generator: Adobe Illustrator 22.1.0, SVG Export Plug-In . SVG Version: 6.00 Build 0)  -->
<svg version="1.1" id="Layer_1" xmlns="http://www.w3.org/2000/svg" xmlns:xlink="http://www.w3.org/1999/xlink" x="0px" y="0px"
	 viewBox="0 0 512 512" style="enable-background:new 0 0 512 512;" xml:space="preserve">
<g>
	<path d="M372.6,300.9c-15.9,28.7-52.1,49.4-87.1,49.4c-51.4,0-94.4-43-94.4-94.4s43-94.4,94.4-94.4c35,0,71.2,20.8,87.1,49.4
		c12.4-46.2,37.8-84.6,78.9-106.9c-41.1-45-100.3-73.2-166-73.2c-124.3,0-225,100.7-225,225s100.7,225,225,225
		c65.8,0,124.9-28.2,166-73.2C410.4,385.6,385,347.1,372.6,300.9z"/>
</g>
</svg>
